<?xml version="1.0" encoding="iso-8859-1"?>
<!-- Generator: Adobe Illustrator 19.1.1, SVG Export Plug-In . SVG Version: 6.00 Build 0)  -->
<svg version="1.1" id="Layer_1" xmlns="http://www.w3.org/2000/svg" xmlns:xlink="http://www.w3.org/1999/xlink" x="0px" y="0px"
	 viewBox="0 0 48 48" style="enable-background:new 0 0 48 48;" xml:space="preserve">
<path style="fill:#3E2723;" d="M35.126,44c0,0-6-2-11-2S13,44,13,44l-1-12h24L35.126,44z"/>
<path style="fill:#FFA726;" d="M14.126,28c0,2.208-1.791,4-4,4s-4-1.792-4-4c0-2.209,1.791-4,4-4S14.126,25.791,14.126,28"/>
<path style="fill:#FFA726;" d="M42.126,28c0,2.208-1.791,4-4,4s-4-1.792-4-4c0-2.209,1.791-4,4-4S42.126,25.791,42.126,28"/>
<path style="fill:#C16E14;" d="M38.126,18c0-12.725-28-8.285-28,0v9c0,8.286,6.269,15,14,15s14-6.714,14-15V18z"/>
<path style="fill:#212121;" d="M32,26c0,1.106-0.896,2-2,2c-1.105,0-2-0.894-2-2c0-1.105,0.895-2,2-2C31.104,24,32,24.895,32,26
	 M20,26c0-1.105-0.896-2-2-2c-1.106,0-2,0.895-2,2c0,1.106,0.894,2,2,2C19.104,28,20,27.106,20,26"/>
<path style="fill:#4E342E;" d="M24.126,4C15.621,4,3.126,9,3,36l10,8V24l16.876-9L35,22l0.126,22L45,36c0-12-0.417-29-14.874-29
	l-2-3H24.126z"/>
<path style="fill:#FF9E80;" d="M19.126,35h10c0,0-2,3-5,3S19.126,35,19.126,35z"/>
</svg>
